<?xml version="1.0" encoding="utf-8"?>
<!-- Generator: Adobe Illustrator 26.3.1, SVG Export Plug-In . SVG Version: 6.00 Build 0)  -->
<svg version="1.1" id="レイヤー_1" xmlns="http://www.w3.org/2000/svg" xmlns:xlink="http://www.w3.org/1999/xlink" x="0px"
	 y="0px" viewBox="0 0 302 59" style="enable-background:new 0 0 302 59;" xml:space="preserve">
<style type="text/css">
	.st0{fill:#5C5353;}
	.st1{display:none;}
	.st2{display:inline;}
	.st3{clip-path:url(#SVGID_00000140015099384321568630000006648360752140367261_);}
	.st4{clip-path:url(#SVGID_00000065768833112034319860000016229214060774816139_);fill:#FFFFFF;}
	.st5{clip-path:url(#SVGID_00000065768833112034319860000016229214060774816139_);fill:#AEC98F;}
	.st6{clip-path:url(#SVGID_00000065768833112034319860000016229214060774816139_);fill:#DBBEB4;}
	.st7{clip-path:url(#SVGID_00000065768833112034319860000016229214060774816139_);fill:#797878;}
	.st8{clip-path:url(#SVGID_00000065768833112034319860000016229214060774816139_);fill:#00B2ED;}
	.st9{clip-path:url(#SVGID_00000065768833112034319860000016229214060774816139_);fill:#E0B242;}
	.st10{clip-path:url(#SVGID_00000065768833112034319860000016229214060774816139_);fill:#595757;}
	.st11{clip-path:url(#SVGID_00000083082330831238955950000012399000314197130672_);}
	.st12{clip-path:url(#SVGID_00000111158007517894154530000015264785946361169050_);fill:#FFFFFF;}
	.st13{clip-path:url(#SVGID_00000111158007517894154530000015264785946361169050_);fill:#5C5353;}
	.st14{clip-path:url(#SVGID_00000111158007517894154530000015264785946361169050_);fill:#DBBEB4;}
	.st15{clip-path:url(#SVGID_00000111158007517894154530000015264785946361169050_);fill:#797878;}
	.st16{clip-path:url(#SVGID_00000111158007517894154530000015264785946361169050_);fill:#007AFF;}
	.st17{clip-path:url(#SVGID_00000111158007517894154530000015264785946361169050_);fill:#E0B242;}
	.st18{clip-path:url(#SVGID_00000111158007517894154530000015264785946361169050_);fill:#595757;}
</style>
<g>
	<path class="st0" d="M26,56.2c-0.9,0-1.6-0.2-2.1-0.7c-0.5-0.4-0.8-1.1-0.8-1.9V36.5h-9.4c-3.1,0-5.5-0.3-7.4-1
		c-1.8-0.7-3.1-1.9-3.9-3.5c-0.8-1.7-1.2-4-1.2-7c0-3,0.4-5.4,1.3-7c0.8-1.7,2.2-2.8,4-3.5c1.8-0.7,4.2-1,7.2-1h9.4V4
		c0-0.8,0.2-1.4,0.8-1.9c0.5-0.5,1.2-0.7,2.1-0.7c0.8,0,1.5,0.2,2,0.7c0.5,0.5,0.8,1.1,0.8,1.9v9.4h9.5c3,0,5.5,0.3,7.3,1
		c1.8,0.7,3.1,1.8,4,3.5c0.8,1.7,1.2,4,1.2,7c0,3-0.4,5.3-1.3,7c-0.9,1.7-2.2,2.9-4.1,3.5c-1.8,0.7-4.2,1-7.1,1h-9.5v17.2
		c0,0.8-0.3,1.5-0.8,1.9C27.5,56,26.8,56.2,26,56.2z M13.7,31.2h9.4V18.9h-9.4c-1.7,0-3.1,0.1-4.1,0.4c-1,0.3-1.7,0.8-2.1,1.7
		c-0.4,0.9-0.6,2.2-0.6,4c0,1.7,0.2,3,0.6,3.9c0.4,0.9,1.1,1.5,2,1.8C10.5,31,11.9,31.2,13.7,31.2z M28.8,31.2h9.5
		c1.7,0,3-0.1,4-0.5c1-0.3,1.7-0.9,2.2-1.8c0.5-0.9,0.7-2.2,0.7-3.9c0-1.8-0.2-3.2-0.6-4c-0.4-0.9-1.1-1.4-2.1-1.7
		c-1-0.3-2.4-0.4-4.1-0.4h-9.5V31.2z"/>
</g>
<g>
	<path class="st0" d="M248.4,55c-0.7-0.3-1.2-0.8-1.4-1.5c-0.2-0.7-0.1-1.4,0.2-2c2-3.4,3.4-7.3,4.3-11.6c0.8-4.3,1.3-9.5,1.3-15.6
		V21c0-3,0.4-5.4,1.2-7.1c0.8-1.7,2.1-3,4-3.8c1.9-0.8,4.4-1.1,7.6-1.1h8.5V3.7c0-0.8,0.3-1.5,0.9-2c0.6-0.5,1.2-0.8,2-0.8
		c0.8,0,1.5,0.2,2.1,0.8c0.6,0.5,0.9,1.2,0.9,2V9h20c0.8,0,1.3,0.3,1.8,0.8c0.4,0.5,0.6,1.1,0.6,1.8c0,0.6-0.2,1.2-0.6,1.7
		c-0.4,0.5-1,0.8-1.8,0.8h-34.1c-2.1,0-3.7,0.2-4.8,0.6c-1.1,0.4-1.9,1.1-2.4,2.1c-0.4,1-0.7,2.4-0.7,4.3v3.4
		c0,6.2-0.4,11.7-1.3,16.4c-0.9,4.7-2.4,9.1-4.5,13c-0.4,0.7-0.9,1.1-1.6,1.4C249.9,55.3,249.2,55.3,248.4,55z M274.4,56
		c-2.9,0-5.2-0.3-6.9-0.9c-1.7-0.6-2.9-1.7-3.6-3.3c-0.7-1.6-1.1-3.7-1.1-6.5c0-2.8,0.4-5,1.1-6.5c0.7-1.5,1.9-2.6,3.6-3.2
		c1.7-0.6,4-0.9,6.9-0.9h0.5V17.4c0-0.9,0.3-1.6,0.8-2.2c0.6-0.5,1.2-0.8,2-0.8c0.8,0,1.5,0.3,2,0.8c0.5,0.5,0.8,1.2,0.8,2.2v4.8
		h16.9c0.8,0,1.4,0.3,1.9,0.8c0.5,0.5,0.7,1.1,0.7,1.8c0,0.7-0.2,1.3-0.7,1.8c-0.5,0.5-1.1,0.8-1.9,0.8h-16.9v7.3h3.7
		c2.9,0,5.2,0.3,6.9,0.9c1.7,0.6,2.9,1.7,3.6,3.2c0.7,1.5,1.1,3.7,1.1,6.5c0,2.8-0.4,4.9-1.1,6.5c-0.7,1.6-1.9,2.6-3.6,3.3
		c-1.7,0.6-4,0.9-6.9,0.9H274.4z M274.8,51h8.9c1.8,0,3.1-0.1,4.1-0.4c1-0.3,1.6-0.8,2-1.6c0.4-0.8,0.6-2,0.6-3.7
		c0-1.6-0.2-2.9-0.6-3.7c-0.4-0.8-1.1-1.4-2-1.6c-1-0.3-2.3-0.4-4.1-0.4h-8.9c-1.8,0-3.1,0.1-4.1,0.4c-1,0.3-1.7,0.8-2,1.6
		c-0.4,0.8-0.5,2.1-0.5,3.7c0,1.6,0.2,2.9,0.5,3.7c0.4,0.8,1,1.4,2,1.6C271.7,50.8,273.1,51,274.8,51z"/>
</g>
<g>
	<path class="st0" d="M78.1,55.2c-3.2,0-6-0.2-8.2-0.7c-2.2-0.4-4-1.2-5.3-2.3c-1.3-1.1-2.3-2.7-2.8-4.8c-0.6-2.1-0.9-4.7-0.9-8
		V18.2c0-3.2,0.3-5.9,0.9-7.9c0.6-2,1.5-3.6,2.8-4.8c1.3-1.1,3.1-1.9,5.3-2.4c2.2-0.4,4.9-0.7,8.2-0.7h16.4c3.2,0,6,0.2,8.2,0.7
		c2.2,0.4,4,1.2,5.3,2.4c1.3,1.1,2.3,2.7,2.8,4.8c0.6,2,0.9,4.7,0.9,7.9v21.4c0,3.2-0.3,5.9-0.9,8c-0.6,2.1-1.5,3.7-2.8,4.8
		c-1.3,1.1-3.1,1.9-5.3,2.3c-2.2,0.4-4.9,0.7-8.2,0.7H78.1z M78.1,50.5h16.4c2.4,0,4.3-0.1,5.9-0.4c1.6-0.2,2.8-0.7,3.7-1.5
		c0.9-0.7,1.5-1.8,1.9-3.3c0.4-1.4,0.5-3.4,0.5-5.8V18.1c0-2.4-0.2-4.3-0.5-5.8c-0.4-1.4-1-2.5-1.9-3.3c-0.9-0.7-2.1-1.2-3.7-1.5
		c-1.6-0.3-3.5-0.4-5.9-0.4H78.1c-2.4,0-4.3,0.1-5.9,0.4c-1.6,0.3-2.8,0.8-3.7,1.5c-0.9,0.7-1.5,1.8-1.9,3.3
		c-0.4,1.4-0.5,3.4-0.5,5.8v21.5c0,2.4,0.2,4.3,0.5,5.8c0.4,1.4,1,2.5,1.9,3.3c0.9,0.7,2.1,1.2,3.7,1.5
		C73.8,50.4,75.7,50.5,78.1,50.5z M69.8,22.6c-0.6,0-1.1-0.2-1.4-0.6c-0.3-0.4-0.5-0.9-0.5-1.4c0-0.6,0.2-1,0.5-1.5
		c0.3-0.4,0.8-0.6,1.4-0.6H84v-2.8H73.7c-0.6,0-1-0.2-1.3-0.6c-0.3-0.4-0.5-0.9-0.5-1.4c0-0.5,0.2-1,0.5-1.4
		c0.3-0.4,0.8-0.6,1.3-0.6H84V9.6C84,9,84.2,8.4,84.7,8c0.5-0.4,1-0.6,1.6-0.6c0.6,0,1.2,0.2,1.6,0.6c0.4,0.4,0.7,0.9,0.7,1.6v1.9
		h10.1c0.6,0,1,0.2,1.4,0.6c0.3,0.4,0.5,0.9,0.5,1.4c0,0.5-0.2,1-0.5,1.4c-0.3,0.4-0.8,0.6-1.4,0.6H88.6v2.8h14.1
		c0.6,0,1,0.2,1.4,0.6c0.3,0.4,0.5,0.9,0.5,1.5c0,0.5-0.2,1-0.5,1.4c-0.3,0.4-0.8,0.6-1.4,0.6H69.8z M85.9,50.4
		c-0.6,0-1.2-0.2-1.6-0.6c-0.4-0.4-0.7-1-0.7-1.7v-9.2c-1.8,1.4-3.8,2.7-6,4.1c-2.3,1.4-4.3,2.5-6.2,3.3c-0.6,0.2-1.1,0.3-1.7,0.1
		c-0.6-0.2-1-0.5-1.3-1c-0.2-0.5-0.3-1.1-0.1-1.6c0.2-0.5,0.5-0.9,1.1-1.1c1.1-0.4,2.4-1,3.8-1.7c1.4-0.7,2.7-1.5,4.1-2.3
		c1.4-0.8,2.6-1.6,3.7-2.4c-2.8,0-4.7-0.5-5.7-1.3c-1-0.8-1.5-2.3-1.5-4.3c0-2.1,0.5-3.6,1.6-4.4c1.1-0.8,3.1-1.2,6.1-1.2h9.7
		c2.1,0,3.7,0.2,4.8,0.5c1.1,0.3,1.9,0.9,2.3,1.7c0.4,0.8,0.7,1.9,0.7,3.4c0,1.4-0.2,2.5-0.7,3.3c-0.4,0.8-1.2,1.4-2.3,1.8
		c-1.1,0.4-2.7,0.5-4.8,0.5h-2.3c0.8,0.6,1.7,1.2,2.6,1.7c1,0.6,1.9,1.1,2.9,1.6c0.5-0.4,1-1,1.6-1.6c0.6-0.6,1.2-1.2,1.7-1.7
		c0.5-0.6,0.9-1,1.2-1.3c0.3-0.5,0.8-0.7,1.3-0.8c0.5,0,1,0.1,1.5,0.4c0.4,0.2,0.7,0.6,0.8,1.1c0.1,0.5,0,1-0.3,1.4
		c-0.5,0.5-1.2,1.2-2,2c-0.8,0.8-1.6,1.5-2.2,2.2c0.9,0.4,1.7,0.7,2.6,1c0.8,0.3,1.6,0.6,2.4,0.8c0.6,0.2,0.9,0.5,1.2,1
		c0.2,0.5,0.2,1,0,1.6c-0.2,0.6-0.7,1-1.2,1.3c-0.6,0.2-1.2,0.3-1.8,0.1c-2.1-0.7-4.3-1.6-6.7-2.8c-2.3-1.2-4.4-2.4-6.2-3.7V48
		c0,0.7-0.2,1.3-0.7,1.7C87.1,50.2,86.6,50.4,85.9,50.4z M81.5,32.4h9.7c1.1,0,1.8-0.1,2.2-0.3c0.4-0.2,0.6-0.7,0.6-1.6
		c0-0.9-0.2-1.4-0.6-1.6c-0.4-0.2-1.1-0.3-2.2-0.3h-9.7c-1.1,0-1.8,0.1-2.2,0.3c-0.4,0.2-0.6,0.7-0.6,1.6c0,0.8,0.2,1.4,0.6,1.6
		C79.7,32.3,80.4,32.4,81.5,32.4z"/>
</g>
<g>
	<path class="st0" d="M193.8,56.8c-0.8,0.2-1.5,0-2.1-0.4c-0.6-0.4-0.9-1-1.1-1.8c-0.1-0.7,0-1.3,0.5-1.9c0.4-0.6,1.1-0.9,1.9-1
		c0.2,0,1-0.2,2.3-0.4c1.3-0.2,2.8-0.5,4.6-0.8v-6.4c-4.1,1.9-8.4,3.4-12.8,4.6c-0.8,0.2-1.6,0.2-2.2-0.1c-0.6-0.2-1.1-0.7-1.3-1.5
		c-0.2-0.8-0.2-1.4,0.2-2c0.4-0.6,1-1,1.9-1.2c3.2-0.8,6.6-1.8,10-3.2c3.4-1.4,6.5-3,9.3-4.7h-18.8c-0.6,0-1.2-0.2-1.7-0.7
		c-0.5-0.5-0.7-1-0.7-1.6c0-0.7,0.2-1.2,0.7-1.7c0.5-0.4,1-0.7,1.7-0.7h22.7v-2.5c0-0.8,0.3-1.4,0.8-2c0.5-0.5,1.2-0.8,1.9-0.8
		c0.8,0,1.4,0.3,1.9,0.8c0.5,0.5,0.8,1.2,0.8,2v2.5h22.2c0.7,0,1.2,0.2,1.7,0.7c0.4,0.4,0.7,1,0.7,1.7c0,0.6-0.2,1.2-0.7,1.6
		c-0.4,0.5-1,0.7-1.7,0.7h-20.4c1.3,2,2.8,3.8,4.5,5.5c0.9-0.7,2-1.5,3.3-2.5c1.3-1,2.3-1.7,3-2.2c0.6-0.4,1.3-0.6,2.1-0.6
		c0.7,0.1,1.3,0.4,1.7,0.9c0.4,0.6,0.6,1.2,0.6,1.9c-0.1,0.7-0.4,1.3-0.9,1.7c-0.7,0.5-1.6,1.2-2.7,1.9c-1.1,0.7-2.2,1.5-3.2,2.1
		c1.9,1.4,3.9,2.5,5.9,3.6c2.1,1,4.3,1.9,6.5,2.7c0.9,0.3,1.4,0.8,1.6,1.5c0.2,0.7,0.2,1.4-0.1,2.1c-0.4,0.8-1,1.2-1.7,1.4
		c-0.7,0.1-1.5,0.1-2.3-0.2c-4.6-1.6-9-4-13.1-7.1c-4.1-3.1-7.5-6.9-10.1-11.4c-0.9,0.7-1.8,1.4-2.9,2.1c-1,0.7-2.1,1.4-3.1,2v8.2
		c1.6-0.3,3.2-0.6,4.6-0.9c1.4-0.3,2.6-0.5,3.6-0.7c1-0.2,1.6-0.3,1.8-0.3c0.7-0.2,1.4-0.1,2,0.3c0.6,0.4,1,0.9,1.1,1.6
		c0.3,1.6-0.3,2.6-1.9,2.9c-0.2,0-0.9,0.2-2,0.4c-1.1,0.2-2.5,0.5-4,0.8c-1.6,0.3-3.3,0.6-5.1,1c-1.8,0.3-3.5,0.6-5.1,1
		c-1.6,0.3-3,0.6-4.2,0.8C194.9,56.6,194.1,56.7,193.8,56.8z M200.4,29.1c-0.7,0-1.3-0.2-1.8-0.7c-0.5-0.5-0.8-1.1-0.8-1.8v-5
		c-1,0.6-2,1.3-3.2,2c-1.2,0.7-2.3,1.4-3.4,2c-1.1,0.6-2,1.1-2.8,1.5c-0.8,0.4-1.5,0.5-2.2,0.2c-0.7-0.3-1.2-0.7-1.6-1.4
		c-0.3-0.6-0.3-1.3-0.1-1.9c0.2-0.6,0.7-1.1,1.3-1.4c0.9-0.5,2.1-1.1,3.6-1.9c1.5-0.8,3-1.6,4.5-2.5c1.5-0.9,2.8-1.6,3.7-2.2V3.7
		c0-0.8,0.3-1.4,0.8-1.9c0.5-0.5,1.1-0.7,1.8-0.7c0.7,0,1.3,0.2,1.8,0.7c0.5,0.5,0.8,1.1,0.8,1.9v22.9c0,0.8-0.3,1.4-0.8,1.8
		C201.7,28.9,201.1,29.1,200.4,29.1z M195.6,13.4c-0.6,0.4-1.3,0.6-1.9,0.5c-0.6-0.1-1.2-0.4-1.7-0.9c-0.4-0.4-1-1-1.7-1.7
		c-0.7-0.7-1.4-1.5-2.2-2.2c-0.7-0.8-1.4-1.4-1.9-2c-0.4-0.5-0.6-1.1-0.6-1.8c0.1-0.7,0.4-1.3,1-1.7c1.2-0.9,2.4-0.8,3.5,0.2
		c0.4,0.4,1.1,1,1.8,1.8c0.8,0.8,1.5,1.6,2.3,2.3c0.8,0.8,1.3,1.4,1.7,1.8c0.5,0.6,0.8,1.2,0.7,1.9
		C196.7,12.3,196.3,12.9,195.6,13.4z M208.5,25.9c-0.6,0-1.2-0.2-1.7-0.7c-0.5-0.5-0.7-1-0.7-1.6c0-0.7,0.2-1.2,0.7-1.7
		c0.5-0.5,1-0.7,1.7-0.7h9.9v-7.3h-11.5c-0.6,0-1.2-0.2-1.7-0.7c-0.5-0.5-0.7-1-0.7-1.7c0-0.7,0.2-1.2,0.7-1.7
		c0.5-0.5,1-0.7,1.7-0.7h11.5V4c0-0.8,0.3-1.5,0.8-2c0.5-0.5,1.2-0.8,1.9-0.8c0.8,0,1.5,0.3,2,0.8c0.5,0.5,0.8,1.2,0.8,2v5.1H236
		c0.7,0,1.2,0.2,1.7,0.7c0.4,0.5,0.7,1,0.7,1.7c0,0.6-0.2,1.2-0.7,1.7c-0.4,0.5-1,0.7-1.7,0.7h-12.2v7.3h10.5c0.6,0,1.2,0.2,1.6,0.7
		c0.5,0.5,0.7,1,0.7,1.7c0,0.6-0.2,1.2-0.7,1.6c-0.5,0.5-1,0.7-1.6,0.7H208.5z"/>
</g>
<g class="st1">
	<g class="st2">
		<defs>
			<rect id="SVGID_1_" x="115" y="-24" width="70" height="99"/>
		</defs>
		<clipPath id="SVGID_00000171704081520555152160000009319451857096526000_">
			<use xlink:href="#SVGID_1_"  style="overflow:visible;"/>
		</clipPath>
		<g style="clip-path:url(#SVGID_00000171704081520555152160000009319451857096526000_);">
			<defs>
				<rect id="SVGID_00000063606312435591690410000010379350223240749238_" x="115" y="-24" width="70" height="99"/>
			</defs>
			<clipPath id="SVGID_00000165216813918273008600000002938310026119865790_">
				<use xlink:href="#SVGID_00000063606312435591690410000010379350223240749238_"  style="overflow:visible;"/>
			</clipPath>
			<path style="clip-path:url(#SVGID_00000165216813918273008600000002938310026119865790_);fill:#FFFFFF;" d="M153,25.3l-0.7,2.7
				c0,0-0.4,3.4-0.5,3.4s2.9,2.2,3,1.9c0.1-0.3,4.8,0,4.8,0l2-2l0.6-3.6l0.1-2.4H153z"/>
			<path style="clip-path:url(#SVGID_00000165216813918273008600000002938310026119865790_);fill:#AEC98F;" d="M142,13.8
				c0,0,0.1,0.1,0.2,0.2c0.1,0.1,0.6-0.1,1.2-0.6c0.5-0.4,1.8-1.2,2.7-1.7c1-0.5,2.3-1.1,3.1-1.3c0.7-0.2,2-0.7,2.8-1.1
				c0.8-0.4,2.2-1.2,3.1-1.7c0.9-0.6,1.8-1.1,2-1.2c0.2-0.1,0.7,0.1,1.1,0.3c0.4,0.3,1.6,1.1,2.6,1.8c1,0.7,2.8,1.8,3.9,2.4
				c1.1,0.6,3.3,1.6,4.7,2.1c1.5,0.6,2.9,1,3.1,0.9c0.2-0.1,0.8-0.5,1.4-1.1c0.6-0.5,1.4-1.2,1.7-1.4c0.4-0.2,0.7-0.6,0.9-0.7
				c0.1-0.1,0-0.2-0.3-0.2c-0.3,0-0.7-0.1-1-0.1c-0.3-0.1-1.2-0.3-2.1-0.4c-0.9-0.2-2.4-0.8-3.3-1.3c-0.9-0.5-2.5-1.5-3.5-2.2
				c-1-0.7-2.7-1.6-3.6-2.1c-1-0.5-2.3-1.5-2.9-2.1c-0.6-0.7-1.3-1.3-1.5-1.3c-0.2,0-0.6,0.1-0.9,0.2c-0.3,0.2-1,0.6-1.5,1
				c-0.5,0.4-1.5,1-2.1,1.4c-0.6,0.4-2.1,1.3-3.2,2.1c-1.2,0.8-3,2-3.9,2.6c-1,0.7-2.8,1.8-3.9,2.5c-1.2,0.7-2.1,1.2-2.1,1.2
				L142,13.8z"/>
			<path style="clip-path:url(#SVGID_00000165216813918273008600000002938310026119865790_);fill:#AEC98F;" d="M159.4,12.4
				c0,0,0.8-0.1,1.7-0.3c0.9-0.2,2.3-0.4,3-0.6c0.7-0.2,1.4-0.2,1.4-0.1c0.1,0.1,0.2,0.8,0.3,1.6c0.1,0.8,0,1.5-0.2,1.5
				c-0.2,0-1.2,0.2-2.2,0.3c-1,0.2-2.5,0.3-3.4,0.3c-0.8,0-1.5,0.1-1.5,0.1"/>
			<path style="clip-path:url(#SVGID_00000165216813918273008600000002938310026119865790_);fill:#AEC98F;" d="M155,15.4
				c0,0-0.9-0.1-2-0.1c-1.1-0.1-2.8,0-3.8,0.1c-1,0.1-1.7,0.2-1.7,0.2v-3.4h0.3c0,0,0.8,0,1.7,0.1c1,0,2.6,0.1,3.6,0.1h1.9"/>
			<path style="clip-path:url(#SVGID_00000165216813918273008600000002938310026119865790_);fill:#AEC98F;" d="M155.8,19.6
				c0,0-0.9,0.1-2.1,0.2c-1.1,0.1-3,0.2-4.1,0.2c-1.1,0-3.2,0-4.6-0.2c-1.5-0.1-2.7-0.1-2.7,0c0,0.1,0,0.7-0.1,1.3
				c0,0.6,0,1.2,0.2,1.2c0.1,0.1,1,0.2,1.9,0.2c0.9,0.1,2.7,0.2,4.1,0.3c1.3,0.1,3,0.2,3.8,0.2c0.8,0,1.4,0.1,1.4,0.1"/>
			<path style="clip-path:url(#SVGID_00000165216813918273008600000002938310026119865790_);fill:#AEC98F;" d="M157.7,19.7h2.6
				c1.4,0,3.9-0.3,5.5-0.6c1.6-0.3,3-0.5,3.2-0.4c0.2,0.1,0.8,0.8,1.3,1.6c0.6,0.8,0.9,1.6,0.8,1.7c-0.2,0.1-1,0.3-1.9,0.4
				c-0.9,0.1-2.4,0.3-3.4,0.4c-1,0.1-2.3,0.3-3,0.3c-0.6,0.1-1.2,0.1-1.2,0.1"/>
			<polyline style="clip-path:url(#SVGID_00000165216813918273008600000002938310026119865790_);fill:#AEC98F;" points="158.5,42 
				164.3,41.1 164.4,46.3 158,46.7 			"/>
			<path style="clip-path:url(#SVGID_00000165216813918273008600000002938310026119865790_);fill:#AEC98F;" d="M141.5,42.4
				c0,0-1.4-0.2-3.1-0.4c-1.7-0.2-3.2-0.2-3.3,0.1c-0.1,0.3-0.2,1.3-0.2,2.3s0.2,1.8,0.4,1.8c0.2,0,1.7,0.3,3.4,0.5
				c1.6,0.2,3,0.4,3,0.4"/>
			<path style="clip-path:url(#SVGID_00000165216813918273008600000002938310026119865790_);fill:#AEC98F;" d="M142.5,52.8
				c0,0-1.8-0.3-3.9-0.6c-2.2-0.3-5.2-0.6-6.8-0.7c-1.6,0-2.9,0.1-3,0.4c0,0.3-0.3,1.3-0.5,2.2c-0.3,0.9-0.5,1.8-0.5,2.1
				c0,0.2,2.9,0.4,6.5,0.3c3.6-0.1,7.1-0.1,7.9,0.1c0.8,0.1,1.4,0.3,1.4,0.3"/>
			<path style="clip-path:url(#SVGID_00000165216813918273008600000002938310026119865790_);fill:#AEC98F;" d="M157.5,51.7
				c0,0,1.5-0.1,3.4-0.2c1.9-0.1,4-0.4,4.8-0.8c0.8-0.3,2.3-0.4,3.4-0.2c1.1,0.2,3.1,0.2,4.4-0.1c1.3-0.3,2.5-0.2,2.5,0.1
				c0,0.3-0.2,2-0.5,3.6c-0.3,1.7-0.8,3-1,2.9c-0.3-0.1-1.9-0.3-3.6-0.4c-1.7-0.1-4.1-0.3-5.2-0.3c-1.1,0-2.9,0.1-3.9,0.3
				c-1,0.1-2.5,0.1-3.2-0.1c-0.7-0.2-1.3-0.3-1.3-0.3"/>
			<path style="clip-path:url(#SVGID_00000165216813918273008600000002938310026119865790_);fill:#DBBEB4;" d="M141.5,45l0.8,9.6
				l0.3,2.5c0,0,7.6,2.5,14.4,0l1.2-12.1"/>
			<path style="clip-path:url(#SVGID_00000165216813918273008600000002938310026119865790_);fill:#797878;" d="M152.2,30.4l-0.5-0.2
				L152,29c0.2-0.6,0.4-1.6,0.5-2l0.1-0.9l0.6,0.1l-0.1,0.9c-0.1,0.5-0.3,1.5-0.5,2.1L152.2,30.4z"/>
			<path style="clip-path:url(#SVGID_00000165216813918273008600000002938310026119865790_);fill:#797878;" d="M161.8,32.1l-0.5-0.1
				l0.3-1.6c0.2-0.9,0.4-2.2,0.5-3.1l0.1-1.5l0.6,0l-0.1,1.5c-0.1,0.8-0.3,2.3-0.5,3.1L161.8,32.1z"/>
			<path style="clip-path:url(#SVGID_00000165216813918273008600000002938310026119865790_);fill:#797878;" d="M153.7,31.1l-0.5-0.3
				l0.2-0.5c0.1-0.2,0.3-0.9,0.4-1.5l0.2-1.1l0.5,0.1l-0.2,1.1c-0.1,0.6-0.3,1.4-0.4,1.7L153.7,31.1z"/>
			<path style="clip-path:url(#SVGID_00000165216813918273008600000002938310026119865790_);fill:#797878;" d="M155.7,32.6l-0.5-0.2
				l0.4-1.2c0.2-0.7,0.5-1.7,0.6-2.3l0.2-1.1l0.5,0.1l-0.2,1.1c-0.1,0.6-0.4,1.6-0.6,2.3L155.7,32.6z"/>
			<path style="clip-path:url(#SVGID_00000165216813918273008600000002938310026119865790_);fill:#797878;" d="M158,31.6l-0.5-0.1
				l0.2-1.1c0.1-0.6,0.4-1.5,0.5-2l0.3-1l0.5,0.2l-0.3,1c-0.2,0.5-0.4,1.4-0.5,2L158,31.6z"/>
			<path style="clip-path:url(#SVGID_00000165216813918273008600000002938310026119865790_);fill:#797878;" d="M159.2,32.9l-0.5-0.3
				l0.5-1c0.3-0.5,0.6-1.6,0.7-2.4l0.2-1.5l0.6,0.1l-0.2,1.5c-0.1,0.9-0.5,2-0.8,2.6L159.2,32.9z"/>
			<path style="clip-path:url(#SVGID_00000165216813918273008600000002938310026119865790_);fill:#00B2ED;" d="M124,2.1
				c0,0,0.1,0.5,0.1,1.1c0.1,0.6,0.1,1.7,0.1,2.4c0,0.7,0.2,1.9,0.4,2.6c0.3,0.7,1,1.6,1.7,1.9c0.6,0.4,2.2,0.7,3.4,0.7
				c1.2,0,2.9-0.2,3.7-0.4c0.8-0.3,1.7-1,2-1.5c0.3-0.6,0.1-1.5-0.6-2c-0.6-0.5-2.1-1.3-3.3-1.6c-1.2-0.4-2.8-1-3.5-1.3
				c-0.8-0.3-1.7-0.7-2.1-0.8c-0.4-0.2-0.7-0.3-0.7-0.3L124,2.1z"/>
			<path style="clip-path:url(#SVGID_00000165216813918273008600000002938310026119865790_);fill:#00B2ED;" d="M123.6,14.3
				c0.3,0.5,0.9,1.2,1.4,1.6c0.4,0.4,1.6,0.9,2.5,1.3c0.9,0.3,2.3,0.9,3,1.2c0.7,0.3,1.6,1,2,1.5c0.4,0.5,0.4,1.4,0.1,2
				c-0.4,0.6-1.4,1.3-2.4,1.5c-0.9,0.2-2.4,0.1-3.2-0.2c-0.8-0.3-2.1-1-2.9-1.6c-0.8-0.6-1.6-1.8-1.7-2.7c-0.1-0.9,0-2,0.1-2.5
				c0.1-0.5,0.2-0.9,0.2-0.9S123.3,13.8,123.6,14.3"/>
			<path style="clip-path:url(#SVGID_00000165216813918273008600000002938310026119865790_);fill:#00B2ED;" d="M136.7,27.6
				c0,0-0.8,0.3-1.9,0.8c-1,0.4-2.7,1.2-3.8,1.7c-1.1,0.5-2.3,1.1-2.7,1.3c-0.4,0.2-1.2,0.1-1.7-0.1c-0.5-0.2-1.3-0.7-1.8-1.1
				c-0.5-0.4-1.2-0.7-1.5-0.7c-0.3,0-0.5,0.2-0.5,0.4c0,0.2,0.4,0.9,0.8,1.5c0.4,0.6,0.8,1.8,0.9,2.7c0.1,0.8,0.2,2,0.3,2.6
				c0.1,0.6,0.6,1.4,1.1,1.7c0.5,0.3,1.5,0.4,2.1,0.3c0.6-0.2,1.8-0.7,2.7-1.2c0.8-0.5,2.1-1.5,2.9-2.3c0.8-0.8,2.1-2.1,3.1-2.9
				c0.9-0.8,1.7-1.5,1.7-1.5l-2.4,1l1.7-2.5l-2.7,0.8L136.7,27.6z"/>
			<path style="clip-path:url(#SVGID_00000165216813918273008600000002938310026119865790_);fill:#00B2ED;" d="M146.7,25.8
				c0,0-0.4,0.5-0.9,1.1c-0.5,0.6-1.4,1.4-2,1.7c-0.6,0.3-1.5,0.8-1.9,1c-0.4,0.2-1,0.6-1.2,1c-0.2,0.3-0.4,1.1-0.3,1.7
				c0.1,0.6,0.7,1.4,1.3,1.7c0.7,0.3,1.7,0.4,2.4,0.2c0.6-0.2,1.6-1.1,2.1-1.9c0.5-0.8,1-2.2,1-3.1c0-0.9,0.1-1.6,0.1-1.6
				L146.7,25.8z"/>
			<path style="clip-path:url(#SVGID_00000165216813918273008600000002938310026119865790_);fill:#00B2ED;" d="M165.5,25.7
				c0,0,0.4,0.9,1,2c0.5,1.1,1.5,2.5,2,3.1c0.6,0.6,1.6,1.3,2.3,1.4c0.7,0.2,1.7,0,2.3-0.3c0.6-0.3,1.3-1,1.6-1.5
				c0.3-0.5,0.2-1.3-0.1-1.8c-0.3-0.5-1.1-1.2-1.7-1.6c-0.7-0.4-1.9-0.8-2.7-0.8c-0.8-0.1-1.8-0.2-2.2-0.2c-0.4,0-0.7-0.1-0.7-0.1
				L165.5,25.7z"/>
			<path style="clip-path:url(#SVGID_00000165216813918273008600000002938310026119865790_);fill:#00B2ED;" d="M161.8,32.3
				c0,0-0.1,0.2-0.3,0.4c-0.1,0.2-0.4,0.8-0.7,1.2c-0.2,0.4-0.7,0.9-1,1c-0.3,0.1-0.9,0.2-1.3,0.2c-0.4,0-1.2-0.2-1.9-0.4
				c-0.7-0.2-1.7-0.4-2.4-0.4c-0.7,0-1.7,0-2.4-0.1c-0.7-0.1-1.5-0.3-1.8-0.6c-0.4-0.2-0.6-0.6-0.6-0.8c0-0.2,0.3-0.5,0.6-0.6
				c0.3-0.1,0.6-0.5,0.8-0.9c0.2-0.4,0.3-0.7,0.3-0.7s0.6-1.2,1.6-1.2c0.9-0.1,0.8,1.9,1.8,2c1,0.1,2.4-1.4,3.2-1.4
				c0.8,0,1,1.8,1.6,2c0.6,0.2,1.8-1.1,2.2-1.2C162.1,30.9,161.8,32.3,161.8,32.3"/>
			<path style="clip-path:url(#SVGID_00000165216813918273008600000002938310026119865790_);fill:#00B2ED;" d="M142.4,49.9
				c-0.9-0.3-1.7-9.4-1.5-10c0.2-0.6,3.1-2.9,8.8-3.3c5.6-0.4,8.9,2.5,9,3.3c0.1,0.8-0.5,8.9-0.9,9.2c-1.6,0.8-2.3-3.4-4-3.3
				c-1.7,0.1,0.1,2.9-2.5,3.5c-2.6,0.6-2-3.6-3.8-3.5C145.6,45.9,144.3,51.3,142.4,49.9"/>
			<path style="clip-path:url(#SVGID_00000165216813918273008600000002938310026119865790_);fill:#E0B242;" d="M151.9,26.7
				c0,0,0-0.5-0.1-1c0-0.6,0-1.3,0.1-1.7c0.1-0.4,0.5-1,0.9-1.5c0.4-0.4,1-1,1.3-1.3c0.3-0.3,0.6-1,0.6-1.6c0-0.6-0.2-2.1-0.4-3.3
				c-0.2-1.2-0.3-2.7-0.2-3.3c0.1-0.6,0.4-1.4,0.8-1.9c0.3-0.4,0.9-0.9,1.3-0.9c0.4-0.1,1.1,0,1.6,0.2c0.5,0.2,1.2,0.6,1.4,1
				c0.3,0.4,0.5,1,0.4,1.5c-0.1,0.5-0.4,1.5-0.6,2.3c-0.2,0.8-0.4,2.2-0.3,3c0.1,0.8,0.3,1.7,0.5,1.9c0.2,0.3,0.8,0.6,1.3,0.8
				c0.6,0.2,1.3,0.4,1.7,0.5c0.4,0.1,0.8,0.5,0.9,0.8c0.1,0.3,0.2,0.9,0.2,1.4c0,0.4,0,1.2-0.1,1.6c-0.1,0.5-0.1,0.8-0.1,0.8
				s-3.8-0.4-6.6-0.3C154,26,151.9,26.7,151.9,26.7"/>
			<path style="clip-path:url(#SVGID_00000165216813918273008600000002938310026119865790_);fill:#595757;" d="M157.5,12.9
				c0,0.3-0.2,0.6-0.6,0.6c-0.3,0-0.5-0.3-0.5-0.6c0-0.3,0.2-0.6,0.5-0.6C157.3,12.3,157.5,12.6,157.5,12.9"/>
			<path style="clip-path:url(#SVGID_00000165216813918273008600000002938310026119865790_);fill:#797878;" d="M150.2,43.2
				c-1.4,0-3.3-0.1-4.5-0.2c-1.4-0.2-3-0.8-3.7-1.4l-1.2-1l0.4-0.4l1.2,1c0.6,0.5,2.2,1.1,3.4,1.2c1.3,0.1,3.5,0.3,4.8,0.2
				c1.3,0,3.2-0.1,4.2-0.2c0.9-0.1,2.2-0.5,2.7-0.9l1.1-0.8l0.3,0.5l-1.1,0.8c-0.6,0.5-2,0.9-3,1c-1,0.1-2.9,0.2-4.2,0.2
				C150.4,43.2,150.3,43.2,150.2,43.2"/>
			<path style="clip-path:url(#SVGID_00000165216813918273008600000002938310026119865790_);fill:#797878;" d="M156.6,42.3
				c0,0-2.4-2.1-6.8-2c-4.4,0.1-6.5,1.8-6.5,1.8l-0.4-0.4c0.1-0.1,2.3-1.9,6.9-1.9c4.6-0.1,7.1,2.1,7.2,2.1L156.6,42.3z"/>
		</g>
	</g>
</g>
<g>
	<g>
		<defs>
			<rect id="SVGID_00000049927765505518748070000008505581781567416723_" x="115" y="-23" width="69" height="97.6"/>
		</defs>
		<clipPath id="SVGID_00000000182497822362446410000015370720875835766199_">
			<use xlink:href="#SVGID_00000049927765505518748070000008505581781567416723_"  style="overflow:visible;"/>
		</clipPath>
		<g style="clip-path:url(#SVGID_00000000182497822362446410000015370720875835766199_);">
			<defs>
				<rect id="SVGID_00000088828197033467789120000014268888870345859772_" x="115" y="-23" width="69" height="97.6"/>
			</defs>
			<clipPath id="SVGID_00000166651466093322396290000003421384058535485579_">
				<use xlink:href="#SVGID_00000088828197033467789120000014268888870345859772_"  style="overflow:visible;"/>
			</clipPath>
			<path style="clip-path:url(#SVGID_00000166651466093322396290000003421384058535485579_);fill:#FFFFFF;" d="M152.5,25.6l-0.6,2.6
				c0,0-0.4,3.4-0.5,3.4c-0.2,0,2.9,2.1,3,1.8c0.1-0.3,4.8,0,4.8,0l1.9-2l0.6-3.5l0.1-2.3H152.5z"/>
			<path style="clip-path:url(#SVGID_00000166651466093322396290000003421384058535485579_);fill:#5C5353;" d="M141.6,14.2
				c0,0,0.1,0.1,0.2,0.2c0.1,0.1,0.6-0.1,1.1-0.6c0.5-0.4,1.7-1.2,2.7-1.7c0.9-0.5,2.3-1.1,3-1.3c0.7-0.2,2-0.7,2.7-1.1
				c0.8-0.4,2.1-1.2,3-1.7c0.9-0.5,1.8-1.1,1.9-1.2c0.2-0.1,0.7,0.1,1.1,0.3c0.4,0.3,1.6,1.1,2.6,1.8c1,0.7,2.7,1.8,3.8,2.4
				c1.1,0.6,3.2,1.6,4.7,2.1c1.5,0.5,2.8,0.9,3,0.9c0.2-0.1,0.8-0.5,1.4-1.1c0.6-0.5,1.4-1.1,1.7-1.4c0.3-0.2,0.7-0.5,0.9-0.7
				c0.1-0.1,0-0.2-0.3-0.2c-0.3,0-0.7-0.1-1-0.1c-0.3-0.1-1.2-0.3-2.1-0.4c-0.9-0.2-2.4-0.8-3.3-1.3c-0.9-0.5-2.4-1.5-3.4-2.2
				c-1-0.7-2.6-1.6-3.6-2.1c-1-0.5-2.3-1.4-2.9-2.1c-0.6-0.7-1.3-1.2-1.5-1.3c-0.2,0-0.6,0.1-0.9,0.2c-0.3,0.2-1,0.6-1.5,1
				c-0.5,0.4-1.5,1-2.1,1.4c-0.6,0.4-2,1.3-3.2,2c-1.2,0.8-2.9,1.9-3.9,2.6c-1,0.7-2.7,1.8-3.9,2.4c-1.2,0.7-2.1,1.2-2.1,1.2
				L141.6,14.2z"/>
			<path style="clip-path:url(#SVGID_00000166651466093322396290000003421384058535485579_);fill:#5C5353;" d="M158.8,12.9
				c0,0,0.7-0.1,1.7-0.3c0.9-0.2,2.2-0.4,2.9-0.6c0.7-0.2,1.3-0.2,1.4-0.1c0.1,0.1,0.2,0.8,0.3,1.6c0.1,0.8,0,1.5-0.2,1.5
				c-0.2,0-1.2,0.2-2.2,0.3c-1,0.2-2.5,0.3-3.3,0.3c-0.8,0-1.5,0.1-1.5,0.1"/>
			<path style="clip-path:url(#SVGID_00000166651466093322396290000003421384058535485579_);fill:#5C5353;" d="M154.5,15.8
				c0,0-0.9-0.1-2-0.1c-1.1-0.1-2.8,0-3.7,0.1c-0.9,0.1-1.7,0.2-1.7,0.2v-3.3h0.3c0,0,0.8,0,1.7,0.1c0.9,0,2.5,0.1,3.5,0.1h1.8"/>
			<path style="clip-path:url(#SVGID_00000166651466093322396290000003421384058535485579_);fill:#5C5353;" d="M155.2,20
				c0,0-0.9,0.1-2.1,0.2c-1.1,0.1-2.9,0.2-4,0.2c-1.1,0-3.1,0-4.6-0.2c-1.4-0.1-2.6-0.1-2.6,0c0,0.1,0,0.7-0.1,1.3
				c0,0.6,0,1.2,0.2,1.2c0.1,0.1,1,0.2,1.9,0.2c0.9,0.1,2.7,0.2,4,0.3c1.3,0.1,3,0.2,3.8,0.2c0.8,0,1.4,0.1,1.4,0.1"/>
			<path style="clip-path:url(#SVGID_00000166651466093322396290000003421384058535485579_);fill:#5C5353;" d="M157.1,20.1h2.6
				c1.4,0,3.9-0.3,5.4-0.6c1.6-0.3,3-0.5,3.1-0.4c0.2,0.1,0.7,0.8,1.3,1.6c0.6,0.8,0.9,1.5,0.7,1.7c-0.2,0.1-1,0.3-1.9,0.4
				c-0.9,0.1-2.4,0.3-3.4,0.4c-1,0.1-2.3,0.3-2.9,0.3c-0.6,0.1-1.1,0.1-1.1,0.1"/>
			<polyline style="clip-path:url(#SVGID_00000166651466093322396290000003421384058535485579_);fill:#5C5353;" points="157.8,42.1 
				163.5,41.2 163.7,46.3 157.4,46.7 			"/>
			<path style="clip-path:url(#SVGID_00000166651466093322396290000003421384058535485579_);fill:#5C5353;" d="M141.1,42.4
				c0,0-1.4-0.2-3-0.4c-1.7-0.2-3.1-0.2-3.2,0.1c-0.1,0.3-0.2,1.3-0.2,2.2c0,0.9,0.2,1.8,0.4,1.8c0.2,0,1.7,0.3,3.3,0.5
				c1.6,0.2,2.9,0.4,2.9,0.4"/>
			<path style="clip-path:url(#SVGID_00000166651466093322396290000003421384058535485579_);fill:#5C5353;" d="M142.1,52.7
				c0,0-1.7-0.3-3.9-0.6c-2.1-0.3-5.1-0.6-6.7-0.7c-1.6,0-2.9,0.1-2.9,0.4c0,0.3-0.3,1.2-0.5,2.1c-0.3,0.9-0.5,1.8-0.5,2.1
				c0,0.2,2.9,0.4,6.4,0.3c3.5-0.1,7-0.1,7.8,0.1c0.8,0.1,1.4,0.3,1.4,0.3"/>
			<path style="clip-path:url(#SVGID_00000166651466093322396290000003421384058535485579_);fill:#5C5353;" d="M156.9,51.7
				c0,0,1.5-0.1,3.3-0.2c1.8-0.1,3.9-0.4,4.7-0.8c0.8-0.3,2.3-0.4,3.3-0.2c1.1,0.2,3,0.2,4.3-0.1c1.3-0.3,2.4-0.2,2.5,0.1
				c0,0.3-0.2,1.9-0.5,3.6c-0.3,1.6-0.7,2.9-1,2.8c-0.3-0.1-1.9-0.3-3.6-0.4c-1.7-0.1-4-0.3-5.1-0.3c-1.1,0-2.8,0.1-3.9,0.3
				c-1,0.1-2.4,0.1-3.2-0.1c-0.7-0.2-1.3-0.3-1.3-0.3"/>
			<path style="clip-path:url(#SVGID_00000166651466093322396290000003421384058535485579_);fill:#DBBEB4;" d="M141.1,45l0.8,9.5
				l0.3,2.5c0,0,7.5,2.5,14.2,0l1.1-11.9"/>
			<path style="clip-path:url(#SVGID_00000166651466093322396290000003421384058535485579_);fill:#797878;" d="M151.7,30.6l-0.5-0.2
				l0.3-1.2c0.2-0.6,0.4-1.5,0.4-2l0.1-0.9l0.5,0.1l-0.1,0.9c-0.1,0.5-0.3,1.4-0.5,2.1L151.7,30.6z"/>
			<path style="clip-path:url(#SVGID_00000166651466093322396290000003421384058535485579_);fill:#797878;" d="M161.1,32.3l-0.5-0.1
				l0.3-1.6c0.2-0.8,0.4-2.2,0.5-3l0.1-1.5l0.5,0l-0.1,1.5c-0.1,0.8-0.3,2.2-0.5,3.1L161.1,32.3z"/>
			<path style="clip-path:url(#SVGID_00000166651466093322396290000003421384058535485579_);fill:#797878;" d="M153.1,31.3l-0.5-0.2
				l0.2-0.4c0.1-0.2,0.3-0.8,0.4-1.5l0.2-1.1l0.5,0.1l-0.2,1.1c-0.1,0.6-0.3,1.3-0.4,1.6L153.1,31.3z"/>
			<path style="clip-path:url(#SVGID_00000166651466093322396290000003421384058535485579_);fill:#797878;" d="M155.1,32.8l-0.5-0.2
				l0.4-1.2c0.2-0.7,0.5-1.7,0.6-2.2l0.2-1.1l0.5,0.1l-0.2,1.1c-0.1,0.6-0.4,1.6-0.6,2.3L155.1,32.8z"/>
			<path style="clip-path:url(#SVGID_00000166651466093322396290000003421384058535485579_);fill:#797878;" d="M157.4,31.8l-0.5-0.1
				l0.2-1.1c0.1-0.6,0.4-1.5,0.5-2l0.3-0.9l0.5,0.2l-0.3,0.9c-0.2,0.5-0.4,1.4-0.5,2L157.4,31.8z"/>
			<path style="clip-path:url(#SVGID_00000166651466093322396290000003421384058535485579_);fill:#797878;" d="M158.6,33.1l-0.5-0.3
				l0.5-1c0.3-0.5,0.6-1.6,0.7-2.4l0.2-1.5l0.5,0.1l-0.2,1.5c-0.1,0.8-0.5,2-0.8,2.6L158.6,33.1z"/>
			<path style="clip-path:url(#SVGID_00000166651466093322396290000003421384058535485579_);fill:#007AFF;" d="M123.9,2.8
				c0,0,0.1,0.5,0.1,1.1c0.1,0.6,0.1,1.7,0.1,2.4c0,0.7,0.2,1.9,0.4,2.5c0.3,0.7,1,1.5,1.6,1.9c0.6,0.4,2.1,0.7,3.3,0.7
				c1.2,0,2.8-0.2,3.6-0.4c0.8-0.3,1.7-0.9,2-1.5c0.3-0.6,0.1-1.5-0.6-2c-0.6-0.5-2.1-1.2-3.3-1.6c-1.2-0.4-2.7-0.9-3.5-1.2
				c-0.7-0.3-1.7-0.7-2.1-0.8c-0.4-0.2-0.7-0.3-0.7-0.3L123.9,2.8z"/>
			<path style="clip-path:url(#SVGID_00000166651466093322396290000003421384058535485579_);fill:#007AFF;" d="M123.5,14.8
				c0.3,0.5,0.9,1.2,1.3,1.6c0.4,0.4,1.5,0.9,2.5,1.2c0.9,0.3,2.3,0.9,3,1.2c0.7,0.3,1.6,1,2,1.4c0.4,0.5,0.4,1.4,0.1,2
				c-0.4,0.6-1.4,1.3-2.3,1.5c-0.9,0.2-2.3,0.1-3.1-0.2c-0.8-0.3-2.1-1-2.9-1.6c-0.8-0.6-1.6-1.8-1.6-2.7c-0.1-0.9,0-2,0.1-2.4
				c0.1-0.5,0.2-0.9,0.2-0.9S123.2,14.3,123.5,14.8"/>
			<path style="clip-path:url(#SVGID_00000166651466093322396290000003421384058535485579_);fill:#007AFF;" d="M136.4,27.9
				c0,0-0.8,0.3-1.8,0.7c-1,0.4-2.7,1.2-3.8,1.7c-1.1,0.5-2.3,1.1-2.7,1.2c-0.4,0.2-1.2,0.1-1.6-0.1c-0.5-0.2-1.3-0.7-1.8-1.1
				c-0.5-0.4-1.2-0.6-1.5-0.6c-0.3,0-0.5,0.2-0.5,0.4c0,0.2,0.4,0.9,0.8,1.5c0.4,0.6,0.8,1.8,0.9,2.6c0.1,0.8,0.2,2,0.3,2.6
				c0.1,0.6,0.6,1.4,1.1,1.7c0.5,0.3,1.4,0.4,2.1,0.3c0.6-0.2,1.8-0.7,2.6-1.2c0.8-0.5,2.1-1.5,2.8-2.3c0.7-0.8,2.1-2.1,3-2.9
				c0.9-0.8,1.7-1.4,1.7-1.4l-2.4,1l1.7-2.5l-2.7,0.7L136.4,27.9z"/>
			<path style="clip-path:url(#SVGID_00000166651466093322396290000003421384058535485579_);fill:#007AFF;" d="M146.3,26.1
				c0,0-0.4,0.5-0.9,1.1c-0.5,0.6-1.3,1.4-1.9,1.7c-0.6,0.3-1.4,0.8-1.9,1c-0.4,0.2-1,0.6-1.2,0.9c-0.2,0.3-0.3,1.1-0.3,1.7
				c0.1,0.6,0.7,1.4,1.3,1.7c0.7,0.3,1.7,0.4,2.3,0.2c0.6-0.2,1.6-1.1,2.1-1.9c0.5-0.8,1-2.2,1-3c0-0.9,0.1-1.6,0.1-1.6L146.3,26.1z
				"/>
			<path style="clip-path:url(#SVGID_00000166651466093322396290000003421384058535485579_);fill:#007AFF;" d="M164.8,26
				c0,0,0.4,0.9,1,2c0.5,1.1,1.4,2.5,2,3.1c0.6,0.6,1.6,1.2,2.2,1.4c0.7,0.2,1.7,0,2.3-0.3c0.6-0.3,1.3-1,1.5-1.4
				c0.3-0.5,0.2-1.3-0.1-1.8c-0.3-0.5-1.1-1.2-1.7-1.6c-0.7-0.4-1.9-0.7-2.7-0.8c-0.8-0.1-1.8-0.2-2.2-0.2c-0.4,0-0.7-0.1-0.7-0.1
				L164.8,26z"/>
			<path style="clip-path:url(#SVGID_00000166651466093322396290000003421384058535485579_);fill:#007AFF;" d="M161.2,32.5
				c0,0-0.1,0.2-0.3,0.4c-0.1,0.2-0.4,0.8-0.7,1.2c-0.2,0.4-0.7,0.8-1,1c-0.3,0.1-0.9,0.2-1.3,0.2c-0.4,0-1.2-0.2-1.8-0.4
				c-0.6-0.2-1.7-0.4-2.3-0.4c-0.6,0-1.7,0-2.3-0.1c-0.6-0.1-1.5-0.3-1.8-0.6c-0.3-0.2-0.6-0.6-0.5-0.8c0-0.2,0.3-0.4,0.5-0.6
				c0.3-0.1,0.6-0.5,0.8-0.9c0.2-0.4,0.3-0.7,0.3-0.7s0.6-1.2,1.5-1.2c0.9-0.1,0.8,1.8,1.8,1.9c1,0.1,2.3-1.4,3.1-1.4
				c0.8,0,1,1.8,1.6,1.9c0.6,0.2,1.8-1.1,2.2-1.2C161.4,31.1,161.2,32.5,161.2,32.5"/>
			<path style="clip-path:url(#SVGID_00000166651466093322396290000003421384058535485579_);fill:#007AFF;" d="M142,49.9
				c-0.9-0.3-1.7-9.3-1.5-9.8c0.2-0.6,3.1-2.8,8.7-3.3c5.6-0.4,8.8,2.5,8.9,3.3c0.1,0.8-0.5,8.7-0.8,9.1c-1.6,0.8-2.2-3.3-3.9-3.3
				c-1.7,0.1,0.1,2.8-2.5,3.4c-2.5,0.6-1.9-3.5-3.8-3.4C145.2,45.9,143.8,51.2,142,49.9"/>
			<path style="clip-path:url(#SVGID_00000166651466093322396290000003421384058535485579_);fill:#E0B242;" d="M151.4,27
				c0,0,0-0.4-0.1-1c0-0.5,0-1.3,0.1-1.7c0.1-0.4,0.5-1,0.9-1.5c0.4-0.4,1-1,1.3-1.3c0.3-0.2,0.6-0.9,0.6-1.5c0-0.6-0.2-2.1-0.4-3.2
				c-0.2-1.2-0.3-2.6-0.2-3.2c0.1-0.6,0.4-1.4,0.7-1.9c0.3-0.4,0.9-0.8,1.3-0.9c0.4-0.1,1.1,0,1.6,0.2c0.5,0.2,1.1,0.6,1.4,1
				c0.3,0.4,0.4,1,0.4,1.5c-0.1,0.5-0.4,1.5-0.6,2.3c-0.2,0.8-0.3,2.1-0.3,2.9c0.1,0.8,0.3,1.7,0.5,1.9c0.2,0.3,0.7,0.6,1.3,0.8
				c0.6,0.2,1.3,0.4,1.7,0.5c0.4,0.1,0.8,0.5,0.8,0.8c0.1,0.3,0.2,0.9,0.2,1.3c0,0.4,0,1.2-0.1,1.6c-0.1,0.5-0.1,0.8-0.1,0.8
				s-3.8-0.4-6.5-0.3C153.4,26.3,151.4,27,151.4,27"/>
			<path style="clip-path:url(#SVGID_00000166651466093322396290000003421384058535485579_);fill:#595757;" d="M156.9,13.4
				c0,0.3-0.2,0.6-0.5,0.6c-0.3,0-0.5-0.3-0.5-0.6c0-0.3,0.2-0.6,0.5-0.6C156.7,12.8,156.9,13.1,156.9,13.4"/>
			<path style="clip-path:url(#SVGID_00000166651466093322396290000003421384058535485579_);fill:#797878;" d="M149.7,43.2
				c-1.3,0-3.3-0.1-4.5-0.2c-1.3-0.2-3-0.8-3.7-1.4l-1.2-1l0.4-0.4l1.2,1c0.6,0.5,2.2,1.1,3.4,1.2c1.3,0.1,3.4,0.2,4.7,0.2
				c1.3,0,3.2-0.1,4.1-0.2c0.9-0.1,2.1-0.5,2.7-0.9l1.1-0.8l0.3,0.4l-1.1,0.8c-0.6,0.5-1.9,0.9-2.9,1c-1,0.1-2.8,0.2-4.2,0.2
				C149.9,43.2,149.8,43.2,149.7,43.2"/>
			<path style="clip-path:url(#SVGID_00000166651466093322396290000003421384058535485579_);fill:#797878;" d="M156,42.4
				c0,0-2.4-2.1-6.7-2c-4.3,0.1-6.4,1.8-6.4,1.8l-0.4-0.4c0.1-0.1,2.2-1.8,6.8-1.9c4.5-0.1,7,2,7.1,2.1L156,42.4z"/>
		</g>
	</g>
</g>
</svg>
