<svg id="レイヤー_1" data-name="レイヤー 1" xmlns="http://www.w3.org/2000/svg" viewBox="0 0 131.727 131.718"><defs><style>.cls-1{fill:#70644f;}.cls-2{fill:#fefefe;}.cls-3{fill:#716551;}.cls-4{fill:#726652;}.cls-5{fill:#756955;}.cls-6{fill:#7c715d;}.cls-7{fill:#8d8372;}.cls-8{fill:#b4aea3;}.cls-9{fill:#dcd9d5;}.cls-10{fill:#8c8272;}</style></defs><path class="cls-1" d="M364.959.525a4.35,4.35,0,0,0-2.217-.2Q299.286.313,235.832.323c-2.816,0-2.52-.3-2.52,2.52q-.008,63.45.006,126.9a4.35,4.35,0,0,0,.2,2.217q64.9,0,129.8.039c1.407,0,1.684-.276,1.682-1.682Q364.928,65.42,364.959.525Z" transform="translate(-233.272 -0.282)"/><path class="cls-2" d="M285.974,35.722a8.232,8.232,0,0,1,1.71,12.951,4.1,4.1,0,0,1-2.967,1.168c-4.741-.1-8.856-1.619-11.838-5.431-.8-1.025-1.194-.695-1.868-.064a90.375,90.375,0,0,0-8.514,9.719,26.82,26.82,0,0,1-4.63,4.92c-3.655,2.742-7.26,1.424-8.315-3.079-1.132-4.834-.11-9.473,1.451-14.027a40.839,40.839,0,0,1,7.76-13.36c.6-.7.815-1.068.228-2.018A14.047,14.047,0,0,1,257.6,14.537c.938-3.034,2.766-3.991,6.8-3.723a9.832,9.832,0,0,1,5.131,1.783c1.885,1.346,1.9,3.336,1.732,5.6a64.5,64.5,0,0,1,13.2-5.05c31.522-8,62.987,11.439,69.241,43.275,5.919,30.127-12.961,58.6-42.245,64.207-18.827,3.6-36.091-.706-50.391-14.281a6.032,6.032,0,0,0-1.481-1.062c-8.53-4.142-13.62-11.178-15.607-20.145-1.688-7.619,2.576-12.19,10.063-13.438,2.1-.35,3.936.814,5.364,2.466,2.24,2.59,3.3,5.769,4.441,8.89.791,2.157,1.43,4.373,2.047,6.587.18.646.253,1.19,1.067,1.216a43.016,43.016,0,0,0,8.588-.671c-1.393-1.941-2.627-3.638-3.832-5.355a2.37,2.37,0,0,0-1.347-.839,7.17,7.17,0,0,1-4.849-6.887c-.085-2.753,1.212-4.646,4.238-5.855,1.447-.578,3.45-.473,4.37-1.455.807-.861.288-2.851.643-4.27.767-3.06,3.233-4.523,6.615-4.132,3.979.461,4.2.367,6.575-2.507a9.006,9.006,0,0,1,4.377-2.926,19.36,19.36,0,0,1,11.711,0,8.387,8.387,0,0,1,5.828,5.6c.305.959.612,1.2,1.57.791a14.525,14.525,0,0,1,2.952-.839c4.3-.817,7.33,1.28,7.428,5.614.054,2.394.769,3.415,3.07,3.534a5.471,5.471,0,0,1,1.747.569c3,1.28,4.325,3.121,4.242,5.868a7.178,7.178,0,0,1-4.846,6.892,2.351,2.351,0,0,0-1.348.835c-1.206,1.718-2.441,3.415-3.8,5.311a38.5,38.5,0,0,0,8.754.724c.774-.014,1.022-.565,1.327-1.1,12.415-21.636,1.174-48.916-22.943-54.725C300.8,33.3,293.579,33.781,285.974,35.722Z" transform="translate(-233.272 -0.282)"/><path class="cls-1" d="M287.226,110.666a42.791,42.791,0,0,1-18.739-6.681,1.589,1.589,0,0,1-.908-1.638,25.273,25.273,0,0,0-.73-8.707c-.488-1.84.981-1.166,1.739-1.019,6.947,1.344,13.748.51,20.488-1.3a15.331,15.331,0,0,0,3.943-1.676,9.486,9.486,0,0,1,9.617-.373c4.231,2.275,8.735,3,13.335,3.672a41.436,41.436,0,0,0,13-.511,5.888,5.888,0,0,1-1.577,2.5c-8.167,9.689-18.634,14.412-31.271,14.573a63.223,63.223,0,0,1-16.2-2.162c-.1.083-.137.163-.1.242s.074.116.11.116c2.561,1.384,5.423,1.792,8.184,2.529C288.13,111.019,287.649,110.783,287.226,110.666Z" transform="translate(-233.272 -0.282)"/><path class="cls-1" d="M298.143,85.5c-2.354-.122-4.742-.239-7.13-.372A2.668,2.668,0,0,1,289,84.311c-1.624-1.808-1.521-1.991.757-2.7a30.524,30.524,0,0,1,17.959.234c.989.288,1.02.535.52,1.339a3.628,3.628,0,0,1-3.292,2C302.688,85.2,300.437,85.388,298.143,85.5Z" transform="translate(-233.272 -0.282)"/><path class="cls-3" d="M298.211,76.984c-1.593-3.094-2.794-5.8-1.924-8.968.288-1.047.728-2.066,1.944-2.046s1.631,1.04,1.911,2.091C300.985,71.227,299.786,73.933,298.211,76.984Z" transform="translate(-233.272 -0.282)"/><path class="cls-3" d="M293.279,77.285c-2.4-1.546-4.657-3.176-6.028-5.752a1.712,1.712,0,0,1,.363-2.373c.918-.746,1.711-.239,2.326.416C291.945,71.712,292.729,74.413,293.279,77.285Z" transform="translate(-233.272 -0.282)"/><path class="cls-3" d="M303.152,77.224a15.061,15.061,0,0,1,2.952-7.246c.622-.772,1.4-1.657,2.571-.884,1.215.8.893,1.884.28,2.856A15.762,15.762,0,0,1,303.152,77.224Z" transform="translate(-233.272 -0.282)"/><path class="cls-4" d="M287.3,78.08a20.934,20.934,0,0,1-7.478-2.105c-.867-.483-1.915-1.115-1.307-2.372s1.74-1.373,2.96-.9C283.939,73.662,285.347,75.748,287.3,78.08Z" transform="translate(-233.272 -0.282)"/><path class="cls-4" d="M309.221,78.1a19.78,19.78,0,0,1,4.119-4.534,5.076,5.076,0,0,1,2.405-1.082,1.961,1.961,0,0,1,2.2,1.154c.443.967-.2,1.587-.894,2.044C314.821,77.145,312.259,77.57,309.221,78.1Z" transform="translate(-233.272 -0.282)"/><path class="cls-5" d="M280.966,88.564c-3.441.225-4.393-2.889-6.841-4.135C278,83.557,277.128,83.028,280.966,88.564Z" transform="translate(-233.272 -0.282)"/><path class="cls-5" d="M322.136,84.375c-1.527,1.375-2.921,2.579-4.252,3.849-.662.631-1.43.775-2,.209-.638-.628.355-.978.591-1.459.207-.422.616-.742.838-1.16C318.356,83.846,319.919,83.5,322.136,84.375Z" transform="translate(-233.272 -0.282)"/><path class="cls-5" d="M280.641,83.558c3.66-1,3.685-1.015,5.412,1.568.268.4,1.26.865.49,1.424-.551.4-1.392.916-2.212.184C283.176,85.7,281.986,84.712,280.641,83.558Z" transform="translate(-233.272 -0.282)"/><path class="cls-5" d="M315.659,83.66c-1.17,1-2.347,1.91-3.4,2.944a1.652,1.652,0,0,1-2.369-.048c-.8-.637.275-1.132.582-1.585C312.228,82.367,312.4,82.349,315.659,83.66Z" transform="translate(-233.272 -0.282)"/><path class="cls-6" d="M266.366,109.376a25.193,25.193,0,0,1-4.206-3.294c2.489.071,3.32,1.865,4.654,2.831C266.919,109.314,266.807,109.5,266.366,109.376Z" transform="translate(-233.272 -0.282)"/><path class="cls-7" d="M287.226,110.666l.9-.428,3.253.434c.044.788-.453.5-.84.421C289.427,111,288.279,111.2,287.226,110.666Z" transform="translate(-233.272 -0.282)"/><path class="cls-8" d="M290.537,111.093l.84-.421a3.854,3.854,0,0,1,2.312.588A6.24,6.24,0,0,1,290.537,111.093Z" transform="translate(-233.272 -0.282)"/><path class="cls-9" d="M279.94,107.709a3.418,3.418,0,0,1-2.519-1.122,3.249,3.249,0,0,1,2.508.764A.774.774,0,0,1,279.94,107.709Z" transform="translate(-233.272 -0.282)"/><path class="cls-10" d="M266.366,109.376l.448-.463a3.892,3.892,0,0,1,1.735,1.477A2.636,2.636,0,0,1,266.366,109.376Z" transform="translate(-233.272 -0.282)"/></svg>