<svg version="1.1" id="ライン" xmlns="http://www.w3.org/2000/svg" x="0" y="0" viewBox="0 0 459.3 487" style="enable-background:new 0 0 459.3 487" xml:space="preserve">
<style>
.st1{fill:#5c5353}.st3{fill:#797878}.st4{fill:#007aff}
@media (prefers-color-scheme: dark) {
  .st0 {
    fill: #cfefff;
  }
  .st1 {
    fill: #fff;
  }
  .st3 {
    fill: #fff;
  }
}
</style><path d="m260.5 207.2-5.6 22.7s-3.2 28.9-4.5 28.9c-1.3 0 24.7 18.4 25.9 15.9 1.2-2.5 41.2 0 41.2 0l16.7-17.1 5.2-30.3 1.2-20.2h-80.1z" style="fill:#fff"/><path class="st1" d="M166.3 109.5s.7.9 1.5 1.9c.8 1.1 5.2-1.1 9.9-4.8 4.6-3.7 15-10.3 23.2-14.8 8.1-4.5 19.9-9.6 26.1-11.5 6.2-1.8 16.9-6.1 23.6-9.6 6.8-3.4 18.5-10.1 26.1-14.8 7.6-4.7 15.1-9.2 16.7-10 1.6-.8 5.8.5 9.4 2.9 3.5 2.4 13.5 9.2 22.2 15.3 8.7 6 23.5 15.3 33 20.5 9.5 5.3 27.7 13.4 40.4 18.2 12.7 4.7 24.5 8.2 26.1 7.6 1.6-.5 7.2-4.6 12.3-9.1 5.1-4.5 11.8-9.8 14.8-11.9 3-2.1 6.3-4.7 7.4-5.7 1.1-1.1 0-1.9-2.5-1.9-2.4 0-6.2-.4-8.4-1-2.2-.5-10.4-2.2-18.2-3.8-7.9-1.6-20.5-6.5-28.1-11-7.6-4.5-20.9-12.9-29.6-18.6-8.7-5.8-22.6-14-31-18.2-8.4-4.2-19.5-12.4-24.6-18.2-5.1-5.8-10.9-10.7-12.8-11-1.9-.3-5.4.6-7.9 1.9-2.4 1.3-8.2 5.2-12.8 8.6-4.6 3.4-12.6 8.8-17.7 11.9-5.1 3.2-17.6 11.1-27.6 17.7s-25.1 16.7-33.5 22.5c-8.4 5.8-23.5 15.2-33.5 21-10 5.8-18.2 10.5-18.2 10.5l13.7 15.4z"/><path class="st1" d="M315.1 98s6.4-1.1 14.3-2.4c7.9-1.3 19.2-3.5 25.1-4.8 6-1.3 11.5-1.7 12.3-1 .8.8 1.9 7 2.5 13.9.5 6.8-.3 12.6-2 12.9-1.6.3-10.1 1.6-18.7 2.9-8.7 1.3-21.5 2.6-28.6 2.9-7 .3-12.8.5-12.8.5"/><path class="st1" d="M277.6 122.8s-7.8-.4-17.2-1c-9.5-.5-23.9-.3-32 .5-8.1.8-14.8 1.4-14.8 1.4V95.1h3s6.7.2 14.8.5c8.1.3 21.9.5 30.5.5h15.8"/><path class="st1" d="M283.8 159.2s-8 .6-17.7 1.4c-9.8.8-25.3 1.6-34.5 1.9-9.2.3-26.9-.4-39.4-1.4-12.5-1.1-22.7-1.1-22.7 0s-.2 6.2-.5 11.5.4 10 1.5 10.5 8.4 1.4 16.3 1.9 23.4 1.6 34.5 2.4c11.1.8 25.7 1.6 32.5 1.9 6.8.3 12.3.5 12.3.5"/><path class="st1" d="M300.2 160.1h22.2c12.2 0 33.3-2.4 46.8-5.3s25.7-4.6 27.1-3.8c1.4.8 6.5 7 11.3 13.9 4.9 6.8 7.8 13.3 6.4 14.3-1.4 1.1-8.7 2.6-16.3 3.3-7.6.8-20.7 2.3-29.1 3.3-8.4 1.1-19.7 2.3-25.1 2.9-5.4.5-9.9 1-9.9 1"/><path class="st1" d="m306.6 349.4 49.3-7.4 1.4 44.3-54.7 3"/><path class="st1" d="M162.6 352.4s-11.7-1.7-26-3.7-26.9-1.7-28 .7c-1.1 2.4-2 11.1-2 19.2s1.5 15.1 3.3 15.5c1.8.4 14.7 2.4 28.7 4.4 13.9 2 25.3 3.7 25.3 3.7"/><path class="st1" d="M170.6 441s-15-2.3-33.3-5.2c-18.3-2.8-44.4-5.5-58-5.9-13.6-.4-25 1.3-25.3 3.7-.4 2.4-2.5 10.8-4.7 18.5-2.2 7.7-4 15.7-4 17.7s24.9 3 55.3 2.2c30.4-.8 60.7-.5 67.3.7 6.6 1.2 12 2.2 12 2.2"/><path class="st1" d="M298.6 432.2s12.9-.7 28.7-1.5c15.8-.8 34.1-3.8 40.7-6.6 6.6-2.8 19.5-3.5 28.7-1.5s26 1.7 37.3-.7c11.4-2.4 21-2.1 21.3.7.4 2.8-1.4 16.8-4 31s-6.5 25.2-8.7 24.4c-2.2-.8-16-2.5-30.7-3.7-14.7-1.2-34.5-2.2-44-2.2s-24.5 1-33.3 2.2c-8.8 1.2-21.1.9-27.3-.7-6.2-1.6-11.3-3-11.3-3"/><path d="m162.6 374.5 7.1 81.6 2.8 21.4s65 21.4 122.9 0l9.9-103" style="fill:#dbbeb4"/><path class="st3" d="m253.3 250.6-4.5-1.3 3-10c1.6-5.4 3.3-13.2 3.9-17.3l1-7.6 4.7.6-1 7.6c-.5 4.3-2.4 12.4-4 18l-3.1 10z"/><path class="st3" d="m335.1 264.8-4.6-1 3-13.4c1.6-7.3 3.4-18.9 3.9-25.9l1-12.9 4.7.4-1 12.9c-.6 7.2-2.3 19.1-4 26.6l-3 13.3z"/><path class="st3" d="m265.9 256.8-4.2-2.2 2-3.8c.8-1.6 2.4-7.2 3.2-12.7l1.5-9.6 4.7.7-1.5 9.6c-.8 4.9-2.3 11.5-3.7 14.1l-2 3.9z"/><path class="st3" d="m282.8 269.8-4.5-1.5 3.4-10.5c1.9-5.8 4.3-14.4 5.4-19.4l2-9.1 4.6 1-2 9.1c-1.1 5-3.5 13.9-5.5 19.8l-3.4 10.6z"/><path class="st3" d="m302.6 261-4.6-1 2-9.1c1.1-5.1 3.1-12.9 4.5-17.4l2.5-8.1 4.5 1.4-2.5 8.1c-1.3 4.4-3.3 12.1-4.4 17l-2 9.1z"/><path class="st3" d="m313.2 272-4.2-2.2 4.4-8.6c2.3-4.5 5.1-14 6.2-20.8l2-12.9 4.7.7-2 12.9c-1.1 7.3-4.1 17.3-6.6 22.2l-4.5 8.7z"/><path class="st4" d="M13.8 10.3s.6 4.3 1.2 9.6c.7 5.3.9 14.6.6 20.7-.3 6.1 1.3 16 3.7 21.9 2.4 5.9 8.7 13.3 14.1 16.4 5.4 3.1 18.3 5.8 28.7 6 10.4.2 24.5-1.4 31.2-3.6 6.7-2.2 14.4-8.1 17.1-13.2 2.7-5 .5-12.8-4.9-17.2-5.4-4.4-18-10.7-28.1-14-10.1-3.3-23.6-8.1-30-10.8-6.4-2.6-14.4-5.9-17.7-7.2-3.4-1.3-6.1-2.4-6.1-2.4l-9.8-6.2z"/><path class="st4" d="M10.2 114c2.7 4.4 7.9 10.5 11.6 13.6 3.7 3.1 13.3 7.9 21.4 10.8 8.1 2.9 19.6 7.5 25.7 10.4 6.1 2.9 13.8 8.4 17.1 12.4 3.4 4 3.6 11.7.6 17.2s-12.1 11.2-20.2 12.8c-8.1 1.5-20.2.8-26.9-1.6-6.7-2.4-18-8.7-25.1-14-7-5.4-13.4-15.8-14-23.3-.7-7.5-.4-17 .6-21.1 1-4.2 1.8-7.6 1.8-7.6s4.7-14 7.4-9.6z"/><path class="st4" d="M121.5 227.3s-7.2 2.9-15.9 6.4c-8.7 3.5-23.3 10.1-32.4 14.8-9.1 4.6-19.5 9.5-23.2 10.8-3.7 1.3-10 .8-14.1-1.2-4-2-10.9-6.1-15.3-9.2-4.4-3.1-10.2-5.6-12.8-5.6s-4.6 1.4-4.3 3.2c.3 1.8 3.4 7.7 6.7 13.2 3.4 5.5 6.7 15.7 7.3 22.7.7 7 1.8 17.1 2.5 22.3.7 5.3 4.8 11.7 9.2 14.4 4.4 2.6 12.4 3.7 17.7 2.4 5.4-1.3 15.6-5.8 22.6-10 7.1-4.2 18.1-13.1 24.5-20 6.4-6.8 18.2-17.9 26.3-24.7 8.1-6.8 14.7-12.4 14.7-12.4l-20.8 8.8 14.7-21.5-23.2 6.4 15.8-20.8z"/><path class="st4" d="M206.7 211.7s-3.3 4.3-7.4 9.6c-4.1 5.3-11.6 11.9-16.7 14.8-5.1 2.9-12.5 6.8-16.3 8.6-3.8 1.8-8.5 5.5-10.3 8.1-1.9 2.6-3 9.1-2.5 14.3.5 5.3 5.6 11.9 11.3 14.8 5.7 2.9 14.8 3.5 20.2 1.4 5.4-2.1 13.6-9.4 18.2-16.2 4.6-6.8 8.6-18.7 8.9-26.3.3-7.6.5-13.9.5-13.9l-5.9-15.2z"/><path class="st4" d="M366.3 210.8s3.8 7.7 8.4 17.2c4.6 9.5 12.4 21.5 17.2 26.8 4.9 5.3 13.5 10.6 19.2 11.9 5.7 1.3 14.6.2 19.7-2.4s11.1-8.2 13.3-12.4c2.2-4.2 1.9-11.1-.5-15.3-2.4-4.2-9.1-10.2-14.8-13.4-5.7-3.2-16.1-6.4-23.2-7.2-7-.8-15.5-1.6-18.7-1.9-3.3-.3-5.9-.5-5.9-.5l-14.7-2.8z"/><path class="st4" d="M335.2 267.1s-1 1.7-2.2 3.8c-1.2 2.1-3.8 6.7-5.7 10.3-1.9 3.5-5.8 7.3-8.6 8.4-2.8 1-7.7 1.9-10.8 1.9-3.1 0-10.2-1.6-15.8-3.6-5.6-2-14.6-3.5-20.2-3.3-5.5.1-14.6-.2-20.2-.7-5.6-.5-12.5-2.7-15.5-4.8-3-2.1-5.1-5.2-4.7-6.9.4-1.7 2.5-3.9 4.7-4.8 2.2-.9 5.3-4.3 6.9-7.4 1.6-3.2 3-5.7 3-5.7s5.4-10 13.3-10.5 6.9 15.8 15.3 16.7c8.4 1 20.2-11.9 27.1-11.9 6.9 0 8.4 15.3 13.8 16.7 5.4 1.4 15.3-9.6 18.7-10 3.4-.6.9 11.8.9 11.8z"/><path class="st4" d="M170 416.6c-8-3-14.7-79.8-12.7-85 2-5.2 26.7-24.4 74.6-28.1 48-3.7 76 21.4 76.6 28.1.7 6.7-4 75.4-7.3 78.3-14 6.7-19.3-28.8-34-28.1-14.7.7.7 24.4-21.3 29.6-22 5.2-16.7-30.3-32.7-29.6-15.9.8-27.2 46.7-43.2 34.8z"/><path d="M251.1 219.4s-.3-3.9-.6-8.6c-.3-4.7.2-11.1 1.1-14.2.9-3.1 4.5-8.7 7.8-12.5 3.4-3.8 8.6-8.6 11.5-10.8 2.9-2.2 5.1-8.1 4.7-13.3-.3-5.1-1.8-17.7-3.4-28-1.5-10.3-2.3-22.8-1.7-27.8.6-5 3.5-12.2 6.4-16 2.9-3.8 8.1-7.3 11.5-7.9 3.4-.5 9.7.3 14 2 4.3 1.6 9.8 5.5 12.3 8.6 2.5 3.1 3.8 8.9 3.1 12.8-.8 3.9-3 12.9-5 19.9-2 7-3 18.4-2.2 25.3.8 6.9 2.5 14.3 3.9 16.5 1.4 2.2 6.4 5.1 11.2 6.6 4.8 1.5 11.3 3.6 14.6 4.7 3.2 1.1 6.5 4.1 7.3 6.6.8 2.6 1.5 7.8 1.7 11.5.2 3.8-.1 10.1-.6 14-.5 3.9-.8 7.1-.8 7.1s-32.5-3.4-56-2.9-40.8 6.4-40.8 6.4z" style="fill:#e0b242"/><path d="M298.8 102.1c0 2.8-2.1 5-4.7 5s-4.7-2.2-4.7-5 2.1-5 4.7-5c2.6-.1 4.7 2.2 4.7 5z" style="fill:#595757"/><path class="st3" d="M236.2 359.3c-11.6 0-28.3-.8-38.6-2-11.6-1.3-25.9-6.6-31.8-11.7l-10.3-8.9 3.1-3.6 10.3 8.9c5.3 4.6 18.7 9.4 29.3 10.6 11.1 1.2 29.4 2.1 40.8 1.9 11.4-.2 27.4-1 35.5-1.8 7.7-.8 18.3-4.3 23.1-7.8l9.3-6.7 2.8 3.8-9.3 6.7c-5.4 3.9-16.8 7.8-25.4 8.6-8.3.8-24.4 1.6-35.9 1.8-1 .2-1.9.2-2.9.2z"/><path class="st3" d="M290.9 352.2c-.2-.2-20.7-17.9-58.1-17.1-37.4.8-55.2 15.3-55.4 15.5l-3-3.6c.8-.6 19.3-15.8 58.3-16.6 38.9-.9 60.4 17.5 61.3 18.3l-3.1 3.5z"/></svg>
