<!--?xml version="1.0" encoding="utf-8"?-->
<!-- Generator: Adobe Illustrator 18.1.1, SVG Export Plug-In . SVG Version: 6.00 Build 0)  -->

<svg version="1.1" id="_x32_" xmlns="http://www.w3.org/2000/svg" xmlns:xlink="http://www.w3.org/1999/xlink" x="0px" y="0px" viewBox="0 0 512 512" style="width: 64px; height: 64px; opacity: 1;" xml:space="preserve">
<style type="text/css">
	.st0{fill:#4B4B4B;}
</style>
<g>
	<polygon class="st0" points="440.153,356.731 440.137,356.77 440.141,356.762 	" style="fill: rgb(0, 122, 255);"></polygon>
	<path class="st0" d="M354.12,175.777c14.191,1.938,28.701-4.984,35.729-18.408l55.588-106.116
		c8.968-17.131,2.363-38.289-14.765-47.253c-17.131-8.965-38.282-2.355-47.25,14.768L327.83,124.885
		c-6.833,13.052-4.596,28.435,4.425,38.995l-11.71,22.351c-3.468,6.625-5.162,13.834-5.158,20.953
		c0,6.328,1.326,12.596,3.901,18.392c2.575,5.79,6.416,11.13,11.399,15.514l73.474,64.802l0.091,0.076
		c5.227,4.634,8.946,9.504,11.358,14.404c2.404,4.915,3.551,9.854,3.563,14.981c-0.004,4.111-0.748,8.358-2.393,12.809l-0.012,0.03
		l-0.011,0.03c0,0.008-0.312,0.859-0.866,2.378c-1.945,5.34-6.86,18.825-11.76,32.158c-2.45,6.67-4.896,13.287-6.959,18.818
		c-1.033,2.773-1.968,5.257-2.754,7.339c-0.642,1.679-1.147,2.993-1.561,4.034c-0.57,0.16-1.63,0.312-2.796,0.304
		c-1.246,0-2.556-0.137-3.464-0.288c-0.452-0.076-0.805-0.137-1.011-0.175l-0.186-0.053l-0.004,0.016
		c-6.644-1.619-13.356,2.431-15.016,9.07c-1.663,6.67,2.393,13.424,9.06,15.088c0.292,0.076,1.493,0.365,3.339,0.661
		c1.857,0.281,4.342,0.562,7.282,0.57c1.838-0.007,3.852-0.106,6.024-0.463c3.236-0.524,6.906-1.55,10.579-3.867
		c1.824-1.155,3.616-2.644,5.185-4.49c1.569-1.83,2.883-4.011,3.818-6.358c0.604-1.497,1.402-3.571,2.374-6.154
		c1.189-3.13,2.64-7.012,4.209-11.25c-0.74,10.256-3.115,21.4-7.517,32.629c-6.328,16.204-15.585,29.621-25.404,38.654
		c-4.9,4.52-9.922,7.939-14.662,10.15c-4.745,2.219-9.162,3.229-13.044,3.229c-2.64,0-5.052-0.449-7.377-1.353l-10.711-4.201
		c-2.846-3.35-5.269-7.673-7.02-12.953c-2.074-6.253-3.218-13.72-3.21-21.925c-0.008-12.345,2.576-26.324,8.064-40.333
		c6.492-16.592,15.98-30.396,26.191-39.801c5.102-4.702,10.37-8.304,15.453-10.681c3.795-1.77,7.46-2.856,10.913-3.29l10.12,3.966
		c1.413-3.882,2.564-7.035,3.297-9.048c0.551-1.519,0.862-2.37,0.862-2.378l0.012-0.03l0.016-0.03
		c1.192-3.236,1.899-6.359,2.207-9.405l-249.815-97.842c-4.938-1.945-10.149-2.864-15.315-2.857c-7.642,0-15.164,1.953-22.275,5.28
		c-10.681,5.014-20.572,13.082-29.294,23.399c-8.706,10.309-16.227,22.906-21.826,37.188c-6.287,16.068-9.348,32.219-9.352,47.132
		c0.014,13.219,2.381,25.519,7.479,35.964c2.552,5.219,5.816,9.968,9.861,13.994c4.038,4.011,8.877,7.27,14.332,9.397l252.07,98.732
		c4.942,1.945,10.15,2.864,15.32,2.856c7.643,0,15.156-1.96,22.27-5.273c10.682-5.014,20.573-13.098,29.298-23.399
		c8.706-10.316,16.223-22.913,21.818-37.195c6.29-16.068,9.349-32.219,9.356-47.14c-0.016-12.702-2.268-24.516-6.97-34.703
		c1.648-4.52,2.704-7.407,2.742-7.521l-0.011,0.022c2.601-7.019,3.942-14.252,3.942-21.439c0.008-8.98-2.112-17.837-6.123-25.959
		c-4.008-8.144-9.853-15.567-17.203-22.062l-73.593-64.917c-2.256-1.991-3.954-4.353-5.113-6.952
		c-1.159-2.606-1.763-5.432-1.759-8.28c0.004-3.199,0.752-6.397,2.32-9.398L354.12,175.777z M321.612,476.089l-219.437-85.954
		c-2.556-1.003-4.821-2.492-6.925-4.574c-3.141-3.122-5.903-7.673-7.855-13.56c-1.949-5.873-3.058-13.029-3.05-20.945
		c-0.008-11.913,2.492-25.534,7.852-39.193c6.328-16.197,15.585-29.621,25.404-38.654c4.896-4.521,9.918-7.932,14.659-10.143
		c4.744-2.218,9.166-3.236,13.048-3.228c2.636,0,5.044,0.44,7.369,1.352h0.004l219.554,85.999
		c-8.603,4.809-16.748,11.646-24.044,20.277c-8.475,10.036-15.833,22.342-21.306,36.321c-6.153,15.726-9.139,31.513-9.143,46
		C317.749,459.215,319.029,468.104,321.612,476.089z" style="fill: rgb(0, 122, 255);"></path>
</g>
</svg>
